<svg xmlns="http://www.w3.org/2000/svg" width="174" height="33.777" viewBox="0 0 174 33.777">
  <path id="footer-logo" d="M8.243,26.329a10.082,10.082,0,0,0,5.728-1.52,5,5,0,0,0,2.27-4.425q-.175-3.916-5.832-5.873l-2.027-.84a3.332,3.332,0,0,1-.943-.419.633.633,0,0,1-.279-.525q0-.874,1.153-.873a2.257,2.257,0,0,1,2.129,1.468l5.2-1.469Q13.762,7.166,8.382,7.168A8.37,8.37,0,0,0,3.038,8.847,5.3,5.3,0,0,0,.908,13.215a4.787,4.787,0,0,0,.245,1.557,3.583,3.583,0,0,0,.733,1.258,12.172,12.172,0,0,0,.943.944,5.3,5.3,0,0,0,1.154.752q.7.35,1.064.507t1,.367l.594.211,2.1.768a3.8,3.8,0,0,1,1,.471.632.632,0,0,1,.225.507q0,.91-1.71.911a2.707,2.707,0,0,1-3-2.238L0,20.419Q.977,26.33,8.243,26.33Zm16.376,0a5.569,5.569,0,0,0,5.1-2.657v2.273h7.194V7.552H29.718V17.623q0,3.112-2.131,3.11-2.166,0-2.166-3.11V7.552H18.227V18.322q0,8.007,6.392,8.008Zm22.663-.384V15.875q0-3.114,2.129-3.113,2.166,0,2.167,3.113v10.07h7.193V15.176q0-8.007-6.391-8.008a5.568,5.568,0,0,0-5.1,2.657V7.552h-7.2V25.945h7.2Zm21.649,0V15.875q0-3.114,2.131-3.113,2.164,0,2.165,3.113v10.07h7.2V15.176q0-8.007-6.392-8.008a5.568,5.568,0,0,0-5.1,2.657V7.552h-7.2V25.945h7.2Zm22.488,7.832L103.085,7.552H95.574L92.01,16.959,88.832,7.552H80.974l7.649,16.61-4.26,9.615Zm19.239-7.448a10.082,10.082,0,0,0,5.728-1.52,5,5,0,0,0,2.271-4.425q-.175-3.916-5.833-5.873l-2.027-.84a3.352,3.352,0,0,1-.943-.419.633.633,0,0,1-.279-.525q0-.874,1.153-.873a2.259,2.259,0,0,1,2.131,1.468l5.2-1.469q-1.887-4.686-7.265-4.685a8.37,8.37,0,0,0-5.344,1.679,5.3,5.3,0,0,0-2.131,4.37,4.825,4.825,0,0,0,.243,1.557,3.565,3.565,0,0,0,.735,1.258,11.93,11.93,0,0,0,.943.944,5.32,5.32,0,0,0,1.153.752c.464.234.82.4,1.065.507s.577.228,1,.367l.594.211,2.1.768a3.775,3.775,0,0,1,1,.471.632.632,0,0,1,.227.507q0,.91-1.711.911a2.709,2.709,0,0,1-3-2.238l-5.24,1.188q.98,5.911,8.243,5.911Zm13.792-19.9a4.393,4.393,0,0,0,2.97-.909,2.925,2.925,0,0,0,1.047-2.308A2.947,2.947,0,0,0,127.453.892a5.5,5.5,0,0,0-6.008,0,2.95,2.95,0,0,0-1.013,2.325,2.926,2.926,0,0,0,1.048,2.308A4.4,4.4,0,0,0,124.45,6.433Zm3.6,19.512V7.552h-7.2V25.945h7.2Zm10.893.384a5.6,5.6,0,0,0,5.238-2.657v2.273h7.194V.664h-7.194v9.2a5.582,5.582,0,0,0-5.24-2.692,7.98,7.98,0,0,0-6.164,2.711,9.825,9.825,0,0,0-2.463,6.871,9.832,9.832,0,0,0,2.463,6.871,7.984,7.984,0,0,0,6.164,2.709ZM140.9,20.84a3,3,0,0,1-2.463-1.154,4.545,4.545,0,0,1-.926-2.937,4.607,4.607,0,0,1,.908-2.937,3.045,3.045,0,0,1,2.48-1.154,3,3,0,0,1,2.463,1.154,4.547,4.547,0,0,1,.925,2.937,4.552,4.552,0,0,1-.925,2.937,3,3,0,0,1-2.463,1.154Zm23.5,5.489q5.482,0,8.557-3.181l-2.97-3.987a7.668,7.668,0,0,1-4.96,1.783A5.706,5.706,0,0,1,161.618,20q-1.309-.946-1.309-1.82h13.516A6.3,6.3,0,0,0,174,16.539a8.685,8.685,0,0,0-2.846-6.854,10.584,10.584,0,0,0-7.283-2.518A10,10,0,0,0,156.363,10a9.417,9.417,0,0,0-2.76,6.817,8.893,8.893,0,0,0,2.916,6.8,11.118,11.118,0,0,0,7.877,2.709ZM167.5,14.86h-7.194a2.382,2.382,0,0,1,1.117-1.976,4.444,4.444,0,0,1,2.48-.681,4.354,4.354,0,0,1,2.48.7A2.393,2.393,0,0,1,167.5,14.86Z" fill="#25564b"/>
</svg>
